<svg width="20" height="20" viewBox="0 0 20 20" fill="none" xmlns="http://www.w3.org/2000/svg">
<path fill-rule="evenodd" clip-rule="evenodd" d="M10.406 1.9775C10.1622 1.80751 9.83795 1.80751 9.59422 1.9775L2.15236 7.16774C1.96305 7.29977 1.8501 7.5157 1.8501 7.74635V17.4439C1.8501 17.8344 2.16766 18.15 2.55824 18.15H5.53498C5.92556 18.15 6.24312 17.8344 6.24312 17.4439C6.24312 17.0534 5.92556 16.7378 5.53498 16.7378H3.26638V8.11415L10.0001 3.41779L16.7338 8.11415V16.7378H9.47568V11.4537C9.47568 11.0632 9.15812 10.7476 8.76754 10.7476C8.37696 10.7476 8.0594 11.0632 8.0594 11.4537V17.4439C8.0594 17.8344 8.37696 18.15 8.76754 18.15H17.442C17.8325 18.15 18.1501 17.8344 18.1501 17.4439V7.74635C18.1501 7.5157 18.0371 7.29977 17.8478 7.16774L10.406 1.9775Z" fill="#007697"/>
</svg>
