<svg width="30" height="30" viewBox="0 0 30 30" fill="none" xmlns="http://www.w3.org/2000/svg">
<path d="M9.20047 28.4375C7.16257 28.4375 5.23847 27.6371 3.80047 26.2004C0.824973 23.2249 0.824973 18.3759 3.80047 15.3874L8.01347 11.1744C8.37557 10.8123 8.97557 10.8123 9.33887 11.1744C9.70097 11.5365 9.70097 12.1365 9.33887 12.4998L5.12587 16.7128C2.87587 18.9628 2.87587 22.6248 5.12587 24.8748C6.21337 25.9623 7.66287 26.5623 9.20037 26.5623C10.7379 26.5623 12.1874 25.9623 13.2749 24.8748L17.4879 20.6618C17.85 20.2997 18.45 20.2997 18.8133 20.6618C19.1754 21.0239 19.1754 21.6239 18.8133 21.9872L14.6003 26.2002C13.1624 27.6498 11.2383 28.4373 9.20027 28.4373L9.20047 28.4375Z" fill="#007697"/>
<path d="M21.3246 19.1006C21.0867 19.1006 20.85 19.0127 20.6625 18.8252C20.3004 18.4631 20.3004 17.8631 20.6625 17.4998L24.8755 13.2868C27.1255 11.0368 27.1255 7.37476 24.8755 5.12476C23.788 4.03726 22.3385 3.43726 20.801 3.43726C19.2635 3.43726 17.814 4.03726 16.7265 5.12476L12.5135 9.33776C12.1514 9.69986 11.5514 9.69986 11.1881 9.33776C10.826 8.97566 10.826 8.37566 11.1881 8.01236L15.4011 3.79936C16.839 2.34976 18.7631 1.56226 20.8011 1.56226C22.8391 1.56226 24.7631 2.36266 26.2011 3.79936C29.1766 6.77486 29.1766 11.6239 26.2011 14.6124L21.9881 18.8254C21.8006 19.0129 21.5627 19.1008 21.326 19.1008L21.3246 19.1006Z" fill="#007697"/>
<path d="M11.837 19.1006C11.5991 19.1006 11.3624 19.0127 11.1749 18.8252C10.8128 18.4631 10.8128 17.8631 11.1749 17.4998L17.4994 11.1753C17.8615 10.8132 18.4615 10.8132 18.8248 11.1753C19.1869 11.5374 19.1869 12.1374 18.8248 12.5007L12.5003 18.8252C12.3128 19.0127 12.0749 19.1006 11.8382 19.1006H11.837Z" fill="#007697"/>
</svg>
