<svg width="16" height="16" viewBox="0 0 16 16" fill="none" xmlns="http://www.w3.org/2000/svg">
<g clip-path="url(#clip0_87_791)">
<path d="M7.99998 0.192383C7.81249 0.192383 7.64106 0.288811 7.54464 0.444169C7.44821 0.599526 7.43749 0.79774 7.52321 0.963811L8.59462 3.10667C8.72854 3.36917 9.04996 3.48167 9.31246 3.34774C9.57495 3.21381 9.68209 2.89238 9.55353 2.62988L8.89997 1.32274C12.0178 1.76203 14.4284 4.45131 14.4284 7.69245C14.4284 10.4942 12.6392 12.9532 9.9768 13.8103C9.69288 13.9014 9.54288 14.2014 9.63395 14.4853C9.70895 14.7103 9.91788 14.855 10.1429 14.855C10.1964 14.855 10.2554 14.8442 10.3089 14.8282C13.4106 13.8264 15.5 10.9603 15.5 7.69245C15.5 3.55674 12.1358 0.192454 8.00013 0.192454L7.99998 0.192383Z" fill="#575757"/>
<path d="M8 15.1924C8.1875 15.1924 8.35892 15.096 8.45535 14.9406C8.55178 14.7852 8.56249 14.587 8.47678 14.421L7.40537 12.2781C7.27144 12.0156 6.95002 11.9031 6.68753 12.037C6.42503 12.171 6.31789 12.4924 6.44646 12.7549L7.10002 14.062C3.98222 13.6227 1.57155 10.9335 1.57155 7.69231C1.57155 4.8906 3.3608 2.4316 6.02318 1.57445C6.3071 1.48338 6.4571 1.18338 6.36603 0.899454C6.27496 0.620883 5.97497 0.465526 5.69104 0.556597C2.58939 1.55838 0.5 4.42445 0.5 7.69231C0.5 11.828 3.86437 15.1924 8 15.1924Z" fill="#575757"/>
</g>
<defs>
<clipPath id="clip0_87_791">
<rect width="15" height="15" fill="white" transform="translate(0.5 0.192383)"/>
</clipPath>
</defs>
</svg>
