<svg width="15" height="15" viewBox="0 0 15 15" fill="none" xmlns="http://www.w3.org/2000/svg">
<g clip-path="url(#clip0_72_2118)">
<path fill-rule="evenodd" clip-rule="evenodd" d="M11.6767 6.32347C11.6767 9.26355 9.29333 11.6469 6.35326 11.6469C3.41319 11.6469 1.02979 9.26355 1.02979 6.32347C1.02979 3.3834 3.41319 1 6.35326 1C9.29333 1 11.6767 3.3834 11.6767 6.32347ZM10.1777 11.3597C9.11572 12.1675 7.79048 12.6469 6.35326 12.6469C2.8609 12.6469 0.0297852 9.81583 0.0297852 6.32347C0.0297852 2.83112 2.8609 0 6.35326 0C9.84562 0 12.6767 2.83112 12.6767 6.32347C12.6767 7.99877 12.0252 9.52191 10.9618 10.6534L14.2048 13.8963C14.4105 14.1021 14.4105 14.4358 14.2048 14.6415C13.999 14.8473 13.6653 14.8473 13.4595 14.6415L10.1777 11.3597Z" fill="white"/>
</g>
<defs>
<clipPath id="clip0_72_2118">
<rect width="15" height="15" fill="white"/>
</clipPath>
</defs>
</svg>
